PathFileType	4	(X/Y/Z)	RBDS024\RBDS024runT25.trc
DataRate	CameraRate	NumFrames	NumMarkers	Units	OrigDataRate	OrigDataStartFrame	OrigNumFrames
150.000000	150.000000	6	33	mm	150.000000	3375	4500
Frame#	Time	L.ASIS			L.Heel.Bottom			L.Heel.Lateral			L.Heel.Top			L.Iliac.Crest			L.MT1			L.MT5			L.PSIS			L.Shank.Bottom.Lateral			L.Shank.Bottom.Medial			L.Shank.Top.Lateral			L.Shank.Top.Medial			L.Thigh.Bottom.Lateral			L.Thigh.Bottom.Medial			L.Thigh.Top.Lateral			L.Thigh.Top.Medial			R.ASIS			R.ASY			R.Heel.Bottom			R.Heel.Lateral			R.Heel.Top			R.Iliac.Crest			R.MT1			R.MT5			R.PSIS			R.Shank.Bottom.Lateral			R.Shank.Bottom.Medial			R.Shank.Top.Lateral			R.Shank.Top.Medial			R.Thigh.Bottom.Lateral			R.Thigh.Bottom.Medial			R.Thigh.Top.Lateral			R.Thigh.Top.Medial			
		X1	Y1	Z1	X2	Y2	Z2	X3	Y3	Z3	X4	Y4	Z4	X5	Y5	Z5	X6	Y6	Z6	X7	Y7	Z7	X8	Y8	Z8	X9	Y9	Z9	X10	Y10	Z10	X11	Y11	Z11	X12	Y12	Z12	X13	Y13	Z13	X14	Y14	Z14	X15	Y15	Z15	X16	Y16	Z16	X17	Y17	Z17	X18	Y18	Z18	X19	Y19	Z19	X20	Y20	Z20	X21	Y21	Z21	X22	Y22	Z22	X23	Y23	Z23	X24	Y24	Z24	X25	Y25	Z25	X26	Y26	Z26	X27	Y27	Z27	X28	Y28	Z28	X29	Y29	Z29	X30	Y30	Z30	X31	Y31	Z31	X32	Y32	Z32	X33	Y33	Z33	

3376	22.5	2130.194200875671	909.3669457518142	932.0823472526462	1603.422115634485	432.7881778600916	981.7980025032916	1621.595175479739	412.6708113114046	937.3280598170954	1647.760580673744	426.6608246565218	980.5307549876998	2054.596434211075	980.8729299273086	869.4997186128393	1630.022960382239	209.6281821038687	1007.276063914152	1614.937557214867	249.6654465533094	896.6771790087809	1943.645401670663	959.1297329795955	973.6094610655056	1746.117932050963	376.3842591457458	916.7095142796604	1740.04940767318	420.140820291764	943.0705742264848	1822.699087307532	395.6840543117562	897.74950522608	1820.484542155305	440.5617695408291	925.9029236810746	2062.879093313451	534.4938786096229	873.1695523873187	2005.822121848721	526.9632007869139	914.7297684832472	2037.28964720468	640.9085702514022	860.4047345063593	1983.428673321664	634.6798564902775	902.0341191020473	2101.9562493294	934.0494832246958	1164.903453628136	2153.687429698877	81.29693431072459	1068.566926426904	1969.289862175041	32.04852276778906	1038.939944320558	1995.448897497379	47.70264417308433	1088.181873058575	1979.550721613865	75.63700304114634	1042.064657879968	2028.771784524429	1000.873533437583	1204.897096840876	2190.665006564571	44.51406585745628	1015.44423666763	2152.377145077808	35.70861140050805	1131.978642202826	1933.391646099486	967.2226765211893	1075.456622983588	2060.136519373256	160.6506391298152	1122.096632534387	2024.936022091757	184.6330238779278	1086.439794683691	2078.297631814309	234.7374515186745	1150.82054848654	2045.508920138056	257.187282364752	1114.288044638975	2122.715375358194	573.4392166425652	1207.863058267929	2071.714989724909	551.3983344142737	1160.622292544589	2066.186083758309	666.681539776543	1221.215357875938	2017.896920032519	645.2319619113822	1176.724782453342	
3377	22.50666666666667	2128.456222394433	906.6046896951943	932.0356858056851	1615.312434786227	433.2666466574821	978.8385635415941	1634.223844116085	413.1633415288143	934.6557911232536	1659.690822188902	427.3516142204394	978.0121827691789	2051.573771875067	978.3180662118144	869.6742478918728	1643.099343555147	210.3501241065746	1005.275983278307	1629.250126303373	250.0332891335129	894.3313854584428	1941.699313423345	956.6216765010312	973.8267536523616	1759.363500750133	376.8654403029513	915.3043279680583	1753.236783147295	420.6758207987271	941.4826848769953	1836.141684973552	395.6360817062769	896.9100647222666	1833.905512806492	440.6297588764465	924.8874307968455	2072.271145457093	532.7845632509907	873.1968672219317	2015.258957541069	523.2323529235864	914.4064978246214	2042.97101152303	638.2734806153246	860.2803714965538	1989.110782292785	630.0877082989272	901.398502444199	2100.323874715544	930.2918415603907	1165.930975098734	2137.386768397723	81.11274901427953	1068.597488459679	1952.861145850674	32.60141414528175	1038.974516527291	1979.087124982727	48.17656262113863	1088.19479639334	1963.280358660267	76.16339162861499	1042.110076701886	2026.096462710608	996.4127625554611	1205.75539454769	2174.310650182794	44.65962295750132	1015.694614339767	2135.815582226859	35.7049102812823	1132.099490524851	1931.753738387914	964.6397221849508	1075.556538838563	2046.807568590388	160.5047623593327	1122.174998550667	2012.138807475828	185.531171861513	1086.733223535842	2067.395378661516	233.978365145212	1150.850935751816	2034.969182666038	257.4202583443252	1114.656691840719	2118.368943233779	569.59939130225	1207.442967190897	2067.383453955939	548.1753955169204	1159.843541236562	2062.747112046336	663.3786939281633	1220.621977684787	2014.518702293712	642.5616439301731	1175.734169240337	
3378	22.51333333333334	2126.636155014004	904.6374887591681	931.7906991107725	1627.156103506815	432.9816590233783	976.0470063909584	1646.855729621428	412.9890027824719	932.1266545332788	1671.596157644805	427.4012738111847	975.6443816905905	2048.334429025359	976.5989449242697	869.8043505898215	1656.874212088244	210.3822969544052	1003.337202364899	1644.095810688227	249.7434605379815	892.0862469756107	1939.796974521919	954.6789833251355	974.0763562033851	1772.731711667304	377.1302083431783	913.9934607391859	1766.41247809534	420.9606034359849	940.0148566786849	1849.649347649648	395.6588132180213	896.1589194379848	1847.23593608848	440.7468260743693	923.9862436541387	2081.643795550516	531.9726737464722	873.1382147935478	2024.707603143276	520.386509920407	913.9561317413333	2048.613399753399	636.39796056278	859.9991724993361	1994.826089552685	626.2366704350293	900.5910878520745	2098.870147675806	927.1609668519566	1166.763081654596	2120.947394319686	80.77966777368374	1068.776566771033	1936.299877343704	33.1236803804102	1039.085177441949	1962.600035200953	48.52828191703671	1088.301513812327	1946.877887140521	76.64306551094917	1042.301462502176	2023.578327220766	992.6062525081677	1206.640176976088	2157.81311558473	44.69276469004024	1016.00981392843	2119.151878783413	35.4873152029539	1132.281952388279	1930.232280475672	962.6573875660498	1075.736287977263	2032.988553715919	160.2528599866582	1122.36631512757	1998.899472969445	186.2298903335286	1087.065415251164	2055.755765768924	233.1046172369298	1150.983384261943	2023.74138720955	257.4255090201519	1115.058150429228	2113.248476738881	566.0705643591733	1207.167215217405	2062.052922185254	545.3491218116798	1159.445583735422	2058.897748763931	660.5887929844085	1220.16424818415	2010.547037666023	640.4973438519366	1175.062160388659	
3379	22.52	2124.776076503793	903.4472730799426	931.3747033167232	1638.866552369077	431.885163235171	973.4627160473013	1659.390585020853	412.1071799021378	929.7703195827547	1683.387426844427	426.7717144451331	973.4624760731723	2044.98990993534	975.6050793782871	869.8592034813699	1671.267193220947	209.7017859784909	1001.497696995355	1659.365236203569	248.7781424857965	889.9814898610736	1937.961159136587	953.2779003465406	974.3389749639762	1786.105874128003	377.137210653477	912.7874915222799	1779.463472882607	420.963546822364	938.6654128363964	1863.105173105151	395.7268870540379	895.488399273721	1860.357803947686	440.8913838217907	923.1785680548445	2090.934417868031	532.0703796006319	872.9829189156533	2034.119694627343	518.4478658381132	913.380938097755	2054.199550556711	635.3002494218674	859.5741836512639	2000.552537348075	623.1575534932225	899.6357351617046	2097.558882285763	924.7339975048162	1167.349559252478	2104.39845396898	80.33432336760279	1069.029555520545	1919.619766910819	33.65643238933824	1039.250850006953	1946.008297059859	48.83038919715937	1088.472295473345	1930.369042400726	77.12134575940934	1042.586728358524	2021.288072792815	989.5594881200853	1207.487731076428	2141.18616308415	44.5936596940102	1016.33162902622	2102.396194464598	35.12742674016907	1132.496193230006	1928.820697828852	961.277656596945	1075.960430326795	2018.743012810152	159.9691019777181	1122.618137339621	1985.248245920756	186.8087348217421	1087.404250713533	2043.448248669694	232.2023700831876	1151.186969142766	2011.876342131353	257.2985010305582	1115.465708525393	2107.431477491884	562.9344089701116	1207.070653873544	2055.810143912424	542.9717705884796	1159.470770966672	2054.663945054905	658.3573854289621	1219.874966176374	2006.018234331216	639.0506503184307	1174.749552122615	
3380	22.52666666666667	2122.922999088751	902.9933228590619	930.8322199787857	1650.37172619741	429.9289846854841	971.1218611581331	1671.742808914547	410.4773503930695	927.6156173060151	1694.986607583797	425.4290445266489	971.4981028102998	2041.652475619842	975.2296801716111	869.8248383149021	1686.21936253197	208.2983819919612	999.7914797921522	1674.969712268555	247.1267134715817	888.0521263251494	1936.21554991745	952.4099943065646	974.5967656155516	1799.382414414239	376.8476931629847	911.6981205496108	1792.286528453062	420.6531822948009	937.4314944012398	1876.399238973924	395.813734866191	894.8908157011334	1873.15980199006	441.0393150085483	922.4429260142336	2100.081314001799	533.0851980944126	872.7293867599521	2043.446788152453	517.4361894327492	912.6945367393866	2059.713510801213	634.9981557862841	859.0324564408205	2006.266343951308	620.8828634828604	898.5690843631878	2096.35146619361	923.0637753854775	1167.670788737555	2087.770055380432	79.83002317273963	1069.306036871623	1902.843602502879	34.24478339695783	1039.456776265725	1929.337992321622	49.15275578893561	1088.686193464328	1913.783163891088	77.6462009793308	1042.928089530867	2019.286586917766	987.3612356469105	1208.232803847617	2124.448095650774	44.37587428103705	1016.625412089341	2085.561655167831	34.69866635366031	1132.722358150459	1927.512253341827	960.496504815107	1076.196105863677	2004.137156951635	159.7352650646667	1122.890824783412	1971.223241028132	187.3525444948531	1087.726945987905	2030.552078671745	231.3645894606803	1151.43283520239	1999.435204782361	257.1422804850183	1115.856154680613	2100.999480515085	560.2611502849649	1207.157009790716	2048.765675261735	541.0957279234691	1159.902458041509	2050.070312466958	656.7123621135493	1219.759865353204	2000.981870179105	638.2261590411753	1174.787431778409	
3381	22.53333333333333	2121.127394460111	903.2182835243822	930.2196993573024	1661.619293563998	427.0682642341289	969.0558133619378	1683.846581892537	408.0612345828915	925.69015187209	1706.331839595925	423.3450132792249	969.7775339599154	2038.43009119319	975.3881302956052	869.7061948481892	1701.693502625714	206.176398704534	998.2478306948043	1690.842755331295	244.7865051429377	886.327707062354	1934.58548574991	952.0820261906601	974.8337331620272	1812.476047628279	376.2281166404622	910.7373513198526	1804.793575822314	419.9994491974774	936.3110264211383	1889.434203402911	395.8929140933324	894.3595677024101	1885.543175254066	441.1644265874064	921.7605430239995	2109.024487230836	535.0172285629287	872.3850563231979	2052.639637970416	517.3664121419395	911.9210090528893	2065.138459024969	635.5064654463954	858.4106748406634	2011.94164646356	619.4438564077642	897.436529632171	2095.213965872416	922.1727774261312	1167.738705973804	2071.092031538415	79.32610652477926	1069.578129446135	1885.999284628455	34.93534193429494	1039.693890051605	1912.617236799669	49.55857673581747	1088.930183537754	1897.150702108491	78.26564425909699	1043.301784593711	2017.621214904257	986.0729351770334	1208.817538499896	2107.619191838013	44.07419454029545	1016.876746782617	2068.662751075653	34.26628268413008	1132.948508106774	1926.303212762468	960.3049651045011	1076.416382923298	1989.23475851084	159.6303127287424	1123.15745157085	1956.866405542911	187.9412419868691	1088.019101217404	2017.148565347625	230.680952920166	1151.694801354427	1986.48207328728	257.0562309861822	1116.210327041078	2094.028850916254	558.1052867903278	1207.398395389863	2041.040788093497	539.7714368039161	1160.668047492056	2045.138873425409	655.6642843659725	1219.797883461937	1995.496049762683	638.0248489062744	1175.120407225589	
